<?xml version="1.0" standalone="no"?>
<!DOCTYPE svg PUBLIC "-//W3C//DTD SVG 20010904//EN"
 "http://www.w3.org/TR/2001/REC-SVG-20010904/DTD/svg10.dtd">
<svg version="1.0" xmlns="http://www.w3.org/2000/svg"
 width="512.000000pt" height="512.000000pt" viewBox="0 0 512.000000 512.000000"
 preserveAspectRatio="xMidYMid meet">
<metadata>
Created by potrace 1.14, written by Peter Selinger 2001-2017
</metadata>
<g transform="translate(0.000000,512.000000) scale(0.100000,-0.100000)"
fill="#000000" stroke="none">
<path d="M2398 5116 c-1 -2 -41 -7 -88 -11 -46 -3 -87 -8 -90 -10 -3 -1 -27
-5 -55 -9 -53 -6 -81 -11 -130 -23 -35 -8 -31 -7 -75 -17 -307 -67 -707 -260
-971 -467 -558 -438 -907 -1075 -976 -1779 -15 -147 -8 -474 12 -595 33 -194
64 -324 112 -465 118 -348 303 -656 558 -929 305 -326 680 -560 1116 -696 92
-29 283 -72 399 -90 127 -19 418 -25 580 -12 164 13 415 65 570 117 146 50
185 66 325 135 377 185 688 445 934 778 104 143 157 230 236 392 99 201 188
467 219 650 21 126 27 172 35 255 9 98 7 418 -2 480 -3 19 -9 58 -12 85 -12
98 -46 252 -81 375 -176 605 -576 1127 -1124 1465 -211 130 -516 254 -765 309
-108 24 -128 28 -230 41 -27 4 -61 9 -75 11 -29 6 -416 14 -422 10z"/>
</g>
</svg>
